<?xml version="1.0" encoding="utf-8"?>
<!-- Generator: Adobe Illustrator 18.0.0, SVG Export Plug-In . SVG Version: 6.00 Build 0)  -->
<!DOCTYPE svg PUBLIC "-//W3C//DTD SVG 1.1//EN" "http://www.w3.org/Graphics/SVG/1.1/DTD/svg11.dtd">
<svg version="1.1" id="Layer_1" xmlns="http://www.w3.org/2000/svg" xmlns:xlink="http://www.w3.org/1999/xlink" x="0px" y="0px"
	 viewBox="0 0 640 480" enable-background="new 0 0 640 480" xml:space="preserve">
<g>
	<path fill="#A3DFC5" d="M475.6,279.8H197.9c-15.3,0-27.9-13.2-27.9-29.4v-59.7c0-19.2,15-34.9,33.2-34.9h272.3
		c15.4,0,27.9,13.3,27.9,29.4v65.3C503.5,266.5,491,279.8,475.6,279.8z"/>
	<path fill="none" stroke="#050505" stroke-width="3" stroke-miterlimit="10" d="M470.1,273.5H202.6c-14.8,0-26.9-11.8-26.9-26.3
		v-53.4c0-17.2,14.4-31.3,32-31.3h262.4c14.9,0,26.9,11.9,26.9,26.3v58.4C497,261.6,484.9,273.5,470.1,273.5z"/>
	<text transform="matrix(0.8782 6.358701e-03 -5.777100e-03 1 238.0986 231.0336)" enable-background="new    "><tspan x="0" y="0" font-family="'SourceSansPro-Regular'" font-size="55.3215">Zanzi</tspan><tspan x="125.2" y="0" fill="#F69D94" font-family="'SourceSansPro-Regular'" font-size="85">.</tspan><tspan x="146.4" y="0" font-family="'SourceSansPro-Regular'" font-size="55.3215">Bar</tspan></text>
</g>
</svg>
